<svg width="16" height="16" viewBox="0 0 16 16" fill="none" xmlns="http://www.w3.org/2000/svg">
<path fill-rule="evenodd" clip-rule="evenodd" d="M13.4269 6.19138L13.4555 6.16285C14.1815 5.4393 14.1815 4.26903 13.4555 3.54548C12.7257 2.81817 11.5396 2.81817 10.8098 3.54548L8 6.34574L5.19017 3.54548C4.46037 2.81817 3.27432 2.81817 2.54452 3.54548C1.81849 4.26903 1.81849 5.4393 2.54452 6.16285L2.57314 6.19138L8 12.0554L13.4269 6.19138ZM8 15L1.13272 7.57948C-0.377573 6.07433 -0.377573 3.63401 1.13272 2.12886C2.64301 0.623714 5.09168 0.623713 6.60197 2.12886L8 3.52213L9.39803 2.12886C10.9083 0.623713 13.357 0.623714 14.8673 2.12886C16.3776 3.63401 16.3776 6.07433 14.8673 7.57948L8 15Z" fill="#242424"/>
</svg>
