<svg width="16" height="16" viewBox="0 0 16 16" fill="none" xmlns="http://www.w3.org/2000/svg">
<g clip-path="url(#clip0_0_1096)">
<path fill-rule="evenodd" clip-rule="evenodd" d="M0 2C0 0.895431 0.895431 0 2 0V0C3.10457 0 4 0.895431 4 2V2C4 3.10457 3.10457 4 2 4V4C0.895431 4 0 3.10457 0 2V2ZM6 2C6 0.895431 6.89543 0 8 0V0C9.10457 0 10 0.895431 10 2V2C10 3.10457 9.10457 4 8 4V4C6.89543 4 6 3.10457 6 2V2ZM16 2C16 0.895431 15.1046 0 14 0V0C12.8954 0 12 0.895431 12 2V2C12 3.10457 12.8954 4 14 4V4C15.1046 4 16 3.10457 16 2V2ZM0 8C0 6.89543 0.895431 6 2 6V6C3.10457 6 4 6.89543 4 8V8C4 9.10457 3.10457 10 2 10V10C0.895431 10 0 9.10457 0 8V8ZM10 8C10 6.89543 9.10457 6 8 6V6C6.89543 6 6 6.89543 6 8V8C6 9.10457 6.89543 10 8 10V10C9.10457 10 10 9.10457 10 8V8ZM12 8C12 6.89543 12.8954 6 14 6V6C15.1046 6 16 6.89543 16 8V8C16 9.10457 15.1046 10 14 10V10C12.8954 10 12 9.10457 12 8V8ZM4 14C4 12.8954 3.10457 12 2 12V12C0.895431 12 0 12.8954 0 14V14C0 15.1046 0.895431 16 2 16V16C3.10457 16 4 15.1046 4 14V14ZM6 14C6 12.8954 6.89543 12 8 12V12C9.10457 12 10 12.8954 10 14V14C10 15.1046 9.10457 16 8 16V16C6.89543 16 6 15.1046 6 14V14ZM16 14C16 12.8954 15.1046 12 14 12V12C12.8954 12 12 12.8954 12 14V14C12 15.1046 12.8954 16 14 16V16C15.1046 16 16 15.1046 16 14V14Z" fill="#242424"/>
</g>
<defs>
<clipPath id="clip0_0_1096">
<rect width="16" height="16" fill="white"/>
</clipPath>
</defs>
</svg>
